<svg xmlns="http://www.w3.org/2000/svg" width="270.27" height="69.879" viewBox="0 0 270.27 69.879">
  <g id="Group_197" data-name="Group 197" transform="translate(-139.87 -150.061)">
    <g id="Group_195" data-name="Group 195">
      <path id="Path_195" data-name="Path 195" d="M174.81,219.94,139.87,196.9l34.94-23.03,34.95,23.03Z" fill="#f22b0a"/>
      <path id="Path_196" data-name="Path 196" d="M174.81,208.04,139.87,185l34.94-23.04L209.76,185Z" fill="#ff5b00"/>
      <path id="Path_197" data-name="Path 197" d="M174.81,196.13,139.87,173.1l34.94-23.04,34.95,23.04Z" fill="#ff9d00"/>
    </g>
    <g id="Group_196" data-name="Group 196">
      <path id="Path_198" data-name="Path 198" d="M238.07,169.11H227.02v31.78h6.61v-5.5h3.8c8.4,0,13.82-5.63,13.82-13.78C251.25,174.7,245.53,169.11,238.07,169.11Zm-.81,20.3h-3.63V175.08h4.01c4.61,0,6.95,3.16,6.95,7.04C244.59,186.56,241.95,189.41,237.26,189.41Z" fill="#f22b0a"/>
      <rect id="Rectangle_121" data-name="Rectangle 121" width="6.61" height="31.78" transform="translate(255.21 169.11)" fill="#f22b0a"/>
      <path id="Path_199" data-name="Path 199" d="M282.9,195.09a9.767,9.767,0,0,1-9.55-10.07c0-5.63,4.22-10.15,9.55-10.15a10.63,10.63,0,0,1,8.83,5.08l5.16-3.67a16.439,16.439,0,1,0,2.4,10.57h-6.7A9.932,9.932,0,0,1,282.9,195.09Z" fill="#f22b0a"/>
      <path id="Path_200" data-name="Path 200" d="M312.88,180.67c-3.37-.21-4.44-1.54-4.44-2.99a2.692,2.692,0,0,1,2.94-2.81,5.16,5.16,0,0,1,3.37,1.58l5.2-3.8a10.8,10.8,0,0,0-8.57-4.09c-4.39,0-9.34,3.8-9.34,9.17,0,4.99,3.58,8.44,9.08,9.08,3.07.34,4.78,1.92,4.78,4.48a3.855,3.855,0,0,1-3.88,3.8,5.506,5.506,0,0,1-4.82-2.3l-5.46,4.01a13.512,13.512,0,0,0,10.28,4.65,10.7,10.7,0,0,0,10.75-10.62C322.78,184.68,318.3,181.01,312.88,180.67Z" fill="#ff9d00"/>
      <path id="Path_201" data-name="Path 201" d="M333.82,186.98h11.95v-5.97H333.82v-5.93H344.1v-5.97H327.21v31.78h19.71v-5.97h-13.1Z" fill="#ff9d00"/>
      <path id="Path_202" data-name="Path 202" d="M375.88,181.61c0-6.91-5.72-12.5-13.18-12.5H351.65v31.78h6.61v-5.5h3.33l5.2,5.5h8.79l-6.87-7.34C373.15,191.5,375.88,187.32,375.88,181.61Zm-13.99,7.8h-3.63V175.08h4.01c4.61,0,6.95,3.16,6.95,7.04C369.23,186.56,366.58,189.41,361.89,189.41Z" fill="#ff9d00"/>
      <path id="Path_203" data-name="Path 203" d="M393.33,168.56l-16.76,32.33h6.82l2.05-4.27h15.4l2.09,4.27h7.21Zm-5.04,22.09,4.78-9.9,4.86,9.9Z" fill="#ff9d00"/>
    </g>
  </g>
</svg>
